@startuml versiones

state Básica
state Gráficos
state UndoRedo
state ClienteServidor
State Ficheros
State BasesDatos

[*] --> Básica
Básica --> Gráficos
Gráficos --> UndoRedo
UndoRedo --> ClienteServidor
ClienteServidor --> Ficheros
Ficheros --> BasesDatos
BasesDatos --> [*]



note right of Básica #15D2F3
  Juego del mastermind con interfaz
  de consola y con casos de uso:
  arrancar, jugar y continuará.
end note

note right of Gráficos #15D2F3
  Añadiendo interfaz gráfica.
end note

note right of UndoRedo #15D2F3
  Añadiendo funcionalidad con deshacer
  y rehacer jugadas.
end note

note right of ClienteServidor #15D2F3
  Añadiendo distribución cliente/servidor.
end note

note right of Ficheros #15D2F3
  Añadiendo funcionalidad con persistencia
  de ficheros.
end note

note right of BasesDatos #15D2F3
  Adaptando persistencia con bases de datos.
end note


@enduml
